<svg width="397" height="403" viewBox="0 0 397 403" fill="none" xmlns="http://www.w3.org/2000/svg">
<path fill-rule="evenodd" clip-rule="evenodd" d="M288.01 62.7686C359.722 118.436 372.718 221.686 317.04 293.383C261.361 365.08 158.091 378.074 86.3795 322.407C14.668 266.739 1.67111 163.489 57.35 91.7925C113.029 20.0951 216.299 7.10084 288.01 62.7686ZM282.611 69.7209C350.482 122.407 362.783 220.128 310.086 287.985C257.389 355.843 159.649 368.141 91.7785 315.454C23.9073 262.768 11.6065 165.047 64.3036 97.1903C117.001 29.3326 214.74 17.0343 282.611 69.7209Z" fill="url(#paint0_linear_88_54)"/>
<path d="M316.983 293.339L322 286.53C328.021 277.91 333.903 267.39 338.081 257.738C343.233 245.835 347.251 232.126 349.352 219.326C351.867 203.994 352.165 187.488 350.225 172.074C348.284 156.659 343.905 140.741 337.668 126.511C332.46 114.629 325.172 102.346 317.229 92.0896C310.788 83.7721 302.485 75.0405 294.513 68.1786C286.443 61.2324 276.341 54.1623 267.039 48.9769C257.935 43.9019 247.155 39.2298 237.225 36.0576C224.896 32.1187 211.105 29.5101 198.189 28.6558C180.049 27.4554 161.011 29.3918 143.483 34.2134C131.004 37.6465 118.122 42.9223 106.83 49.2447C97.7607 54.323 88.2418 60.9678 80.3517 67.7319C72.3111 74.6254 63.9001 83.4745 57.4059 91.8367C50.9093 100.202 44.423 110.535 39.7337 120.036C35.1343 129.354 31.0539 140.221 28.3805 150.264C24.3854 165.272 22.4812 181.86 22.9434 197.385C23.4839 215.543 27.2325 234.349 33.7119 251.321C38.3308 263.42 44.9481 275.937 52.3578 286.556C58.3484 295.142 66.0941 304.158 73.6725 311.379C81.4219 318.763 91.1379 326.306 100.213 331.982C109.083 337.53 119.75 342.804 129.548 346.477C141.68 351.025 155.438 354.331 168.311 355.808C186.363 357.879 205.516 356.85 223.245 352.874C238.404 349.474 254.003 343.521 267.558 335.931C276.628 330.853 286.146 324.208 294.037 317.444C300.01 312.323 306.495 305.847 311.628 299.886L316.982 293.339H316.983ZM281.233 71.4928C276.985 68.2685 273.137 65.3306 268.626 62.4151C251.915 51.6152 232.711 44.0104 213.135 40.4432C179.189 34.2577 143.425 39.8316 113 56.1155C102.075 61.9623 91.3084 69.5774 82.1613 77.9332C75.8832 83.6682 69.6764 90.3927 64.415 97.1637C58.1765 105.192 52.1593 114.815 47.6909 123.95C41.1416 137.338 36.3424 152.607 34.0389 167.333C29.4376 196.743 33.6247 227.516 45.9116 254.63C52.0634 268.205 60.5321 281.317 70.3874 292.499C83.8404 307.763 101.041 320.781 119.391 329.577C141.39 340.123 166.118 345.259 190.496 344.447C221.961 343.399 252.759 332.536 277.878 313.557C285.808 307.565 293.257 300.681 299.86 293.255C300.548 292.481 304.691 287.704 305.521 286.53L306.537 285.226C309.65 281.119 312.673 276.926 315.415 272.559C323.245 260.086 329.56 245.773 333.436 231.563C338.513 212.951 340.02 192.803 337.819 173.639C335.306 151.77 327.999 130.363 316.555 111.554C310.067 100.891 301.906 90.62 292.986 81.8902C289.139 78.1255 285.328 74.9371 281.233 71.4928H281.233ZM66.0247 94.899C69.4682 90.8352 72.7137 86.989 76.4637 83.1726C90.5056 68.882 107.776 57.0308 126.168 49.0766C155.793 36.2644 189.339 32.8016 220.951 39.335C235.73 42.3898 250.699 47.8645 263.965 55.0581C277.748 62.532 291.147 72.6704 302.086 83.9007C312.795 94.8966 322.305 108.127 329.315 121.782C337.362 137.456 342.924 155.233 345.305 172.688C347.363 187.782 347.213 203.534 344.856 218.585C342.882 231.186 339.122 244.292 334.105 256.019C330.008 265.596 324.463 275.558 318.511 284.105L313.127 291.392C306.193 300.228 298.001 308.64 289.347 315.781C279.395 323.994 268.368 330.997 256.707 336.525C229.279 349.53 198.08 354.39 167.991 350.409C153.031 348.43 137.72 344.071 123.967 337.861C114.6 333.631 105.108 328.14 96.7641 322.142C84.0696 313.016 72.0651 301.33 62.6543 288.841C53.5883 276.81 45.9405 262.769 40.7358 248.632C29.4619 218.01 27.9514 183.923 36.5446 152.439C40.5318 137.83 47.047 123.017 55.1053 110.197C58.3037 105.109 62.1716 99.6824 66.0247 94.899ZM288.054 62.7118L294.607 68.0701C302.582 74.9343 310.899 83.6817 317.343 92.0021C325.291 102.266 332.588 114.563 337.799 126.453C344.042 140.696 348.425 156.627 350.367 172.056C352.31 187.493 352.013 203.995 349.493 219.349C347.391 232.16 343.369 245.881 338.213 257.794C334.03 267.457 328.145 277.981 322.117 286.612C316.016 295.347 307.972 304.71 300.24 312.043C292.671 319.221 283.377 326.425 274.535 331.963C263.563 338.836 250.825 344.791 238.52 348.82C221.228 354.482 202.287 357.324 184.095 356.995C171.142 356.76 157.344 354.839 144.825 351.508C134.771 348.832 123.893 344.75 114.564 340.147C105.06 335.458 94.7044 328.96 86.3353 322.463C77.9663 315.966 69.1038 307.545 62.2047 299.502C55.4333 291.606 48.7815 282.081 43.6976 273.005C36.0973 259.437 30.1412 243.837 26.7368 228.662C22.7594 210.935 21.7283 191.743 23.7997 173.692C25.2776 160.817 28.5897 147.037 33.1402 134.903C36.8176 125.098 42.0967 114.424 47.6508 105.548C53.3334 96.4669 60.8834 86.7445 68.2755 78.9901C75.5002 71.4104 84.5346 63.6528 93.1249 57.661C103.756 50.2462 116.287 43.6238 128.398 39.002C145.383 32.5197 164.221 28.7667 182.393 28.2259C197.938 27.7633 214.535 29.6676 229.564 33.667C239.618 36.3427 250.496 40.425 259.825 45.0277C266.888 48.5125 274.781 53.1841 281.238 57.6918L288.054 62.7118Z" fill="black"/>
<path d="M351.711 103.674L346.921 95.3252C342.456 87.9812 335.968 78.9212 330.446 72.3309C324.969 65.7941 317.54 58.1655 311.151 52.5138C304.805 46.8999 296.565 40.6296 289.465 36.0022C282.366 31.3758 273.511 26.481 265.819 22.9245C255.488 18.1486 243.033 13.7783 231.983 11.0501C220.942 8.32413 207.803 6.38448 196.446 5.81154C187.984 5.38485 177.722 5.6131 169.289 6.42035C160.819 7.23133 150.434 9.00794 142.179 11.0612C133.861 13.1299 123.454 16.5699 115.543 19.8623C110.294 22.0465 103.263 25.4017 98.2634 28.1039C93.2638 30.8061 86.6046 34.8498 81.9018 38.0443C74.8144 42.858 66.2348 49.6794 59.9483 55.5034C53.7085 61.2842 46.5331 68.9989 41.2153 75.6396C35.9207 82.2508 30.1086 90.7104 25.8311 98.0223C20.0916 107.832 14.5143 119.894 10.7498 130.618C6.98152 141.354 3.81523 154.17 2.15335 165.425C0.915906 173.807 0.162072 183.896 0.1453 192.368C0.128061 200.849 0.861861 211.16 2.08439 219.552C3.31438 227.992 5.629 238.384 8.09876 246.546C10.5886 254.774 14.6172 265.166 18.317 272.922C20.776 278.077 24.5028 284.97 27.4701 289.851C31.9349 297.195 38.4231 306.255 43.945 312.845C49.4222 319.382 56.851 327.011 63.24 332.662C69.5865 338.276 77.8256 344.547 84.926 349.174C92.0254 353.801 100.88 358.695 108.572 362.252C118.903 367.028 131.358 371.398 142.408 374.126C153.449 376.852 166.588 378.792 177.945 379.365C186.407 379.791 196.669 379.563 205.102 378.756C213.572 377.945 223.958 376.168 232.212 374.115C240.53 372.046 250.937 368.606 258.848 365.314C264.097 363.13 271.128 359.775 276.128 357.072C281.127 354.37 287.786 350.327 292.489 347.132C299.577 342.318 308.156 335.497 314.443 329.673C320.683 323.892 327.858 316.177 333.176 309.537C338.47 302.926 344.282 294.466 348.56 287.154C354.299 277.344 359.877 265.283 363.641 254.558C367.41 243.823 370.576 231.006 372.238 219.752C373.475 211.37 374.229 201.28 374.246 192.809C374.263 184.327 373.529 174.016 372.307 165.625C371.077 157.184 368.762 146.792 366.292 138.63C363.802 130.402 359.774 120.01 356.074 112.254L351.712 103.674H351.711ZM104.031 38.7729L96.2787 43.3485C89.23 47.7491 81.2989 53.5717 74.9901 58.9826C66.7207 66.0755 58.0381 75.157 51.3277 83.741C44.7254 92.1875 38.1468 102.525 33.287 112.082C27.1762 124.099 22.0792 137.98 18.9674 151.097C16.4776 161.594 14.8544 173.256 14.3917 184.034C13.9282 194.839 14.5529 206.805 16.1733 217.498C17.8157 228.335 20.8496 240.278 24.5755 250.585C27.376 258.334 31.4462 267.401 35.3663 274.646C36.5655 276.862 37.7927 279.078 39.1117 281.226C43.5541 288.461 48.3538 295.489 53.7211 302.076C62.16 312.432 72.7267 322.63 83.3717 330.705C94.1406 338.874 105.926 345.81 118.285 351.281C135.433 358.873 154.258 363.786 172.931 365.534C183.677 366.541 194.898 366.541 205.642 365.521C216.322 364.507 228.088 362.235 238.374 359.195C246.264 356.864 254.956 353.577 262.417 350.116C269.89 346.649 278.812 341.675 285.679 337.132C292.457 332.647 300.395 326.488 306.424 321.034C312.398 315.63 319.104 308.587 324.21 302.354C331.071 293.981 337.961 283.662 343.071 274.119C348.199 264.544 352.88 253.323 356.081 242.944C359.277 232.585 361.747 220.581 362.897 209.801C364.047 199.015 364.158 186.471 363.186 175.668C362.456 167.56 360.856 157.925 358.923 150.019C356.971 142.036 353.815 132.391 350.673 124.799C348.274 119.002 344.714 111.63 341.488 105.883L339.062 101.695C336.012 96.7315 332.826 91.8293 329.353 87.1493C322.896 78.4489 314.464 69.1564 306.427 61.8855C298.462 54.6785 288.807 47.5096 279.609 41.9576C265.781 33.6112 249.738 26.802 234.131 22.6395C218.53 18.4784 201.28 16.3943 185.137 16.7395C174.394 16.9691 162.551 18.361 152.05 20.6374C141.54 22.9157 129.539 26.7768 119.675 31.0534L111.801 34.7045L104.03 38.7733L104.031 38.7729ZM27.4916 278.9L23.264 270.573C19.6788 263.033 15.7969 252.949 13.4059 244.948C11.0176 236.955 8.84374 226.999 7.6855 218.737C6.54264 210.583 5.88944 200.604 5.96026 192.369C6.05577 181.274 7.4027 168.604 9.63764 157.736C11.8591 146.934 15.597 134.808 19.8423 124.629C24.1161 114.382 30.0652 103.265 36.2268 94.0289C40.8365 87.1195 46.7931 79.4811 52.3653 73.3217C57.897 67.207 65.2541 60.2049 71.6337 54.9836C78.0553 49.7283 86.757 43.6518 93.896 39.4269C100.983 35.2332 110.513 30.5122 118.152 27.4145C128.435 23.2455 140.524 19.6545 151.422 17.5514C162.081 15.4939 174.255 14.3308 185.112 14.3252C198.672 14.3177 213.282 16.0268 226.478 19.1463C242.339 22.8952 258.563 29.192 272.795 37.1323C284.644 43.7431 296.682 52.4389 306.67 61.6209C314.719 69.0208 323 78.2509 329.49 87.0478C333.549 92.5509 337.982 99.3699 341.496 105.599L343.026 108.368C345.828 113.695 348.532 119.17 350.858 124.723C354.062 132.374 357.241 141.887 359.277 149.93C361.976 160.593 363.886 173.219 364.468 184.205C365.047 195.142 364.51 207.547 362.998 218.396C361.097 232.04 357.224 246.768 352.172 259.584C348.138 269.815 342.517 280.858 336.611 290.135C332.182 297.091 326.464 304.772 321.07 311.01C315.685 317.238 308.575 324.321 302.327 329.68C296.039 335.075 287.505 341.336 280.477 345.721C273.479 350.087 264.048 355.036 256.471 358.315C246.221 362.751 234.165 366.634 223.248 368.994C212.58 371.301 200.214 372.753 189.3 372.988C178.365 373.224 166.338 372.332 155.552 370.513C144.645 368.672 133.316 365.636 122.941 361.802C109.944 356.998 96.7124 350.231 85.205 342.515C78.4084 337.957 70.96 332.136 64.8911 326.648C58.7855 321.126 52.0536 314.065 46.8266 307.707C43.3552 303.485 39.2696 297.976 36.2361 293.431L31.162 285.397C29.8784 283.277 28.6228 281.105 27.492 278.899L27.4916 278.9ZM98.1949 27.9781L106.783 23.6135C114.543 19.9135 124.952 15.8796 133.184 13.3894C141.35 10.9192 151.76 8.60128 160.205 7.37154C168.598 6.14925 178.932 5.41466 187.415 5.43143C195.896 5.44867 205.993 6.20282 214.384 7.44095C225.648 9.10296 238.481 12.2719 249.224 16.0417C257.231 18.851 266.436 22.8416 273.958 26.7675C281.469 30.6873 290.152 36.0507 297.016 41.0153C303.899 45.9929 311.895 52.723 317.97 58.6565C324.094 64.6389 331.226 72.7347 336.387 79.5631C339.789 84.0638 344.114 90.4319 347.043 95.2512C350.012 100.134 353.743 107.035 356.203 112.193C359.904 119.951 363.939 130.358 366.429 138.588C368.9 146.753 371.218 157.161 372.448 165.604C373.671 173.995 374.406 184.327 374.389 192.809C374.372 201.288 373.617 211.383 372.379 219.773C370.717 231.034 367.547 243.864 363.776 254.606C360.967 262.611 356.975 271.814 353.048 279.334C349.128 286.844 343.763 295.526 338.798 302.388C333.819 309.269 327.088 317.264 321.153 323.337C315.17 329.461 307.072 336.591 300.242 341.751C295.741 345.152 289.371 349.476 284.551 352.405C279.668 355.373 272.765 359.104 267.606 361.563C259.846 365.263 249.437 369.297 241.205 371.787C233.039 374.258 222.629 376.576 214.185 377.805C205.791 379.028 195.458 379.762 186.974 379.745C178.494 379.728 168.396 378.974 160.005 377.736C148.741 376.074 135.909 372.905 125.165 369.135C117.158 366.326 107.953 362.335 100.431 358.409C92.9204 354.49 84.2369 349.126 77.3727 344.162C70.4904 339.184 62.4945 332.454 56.4196 326.52C50.2948 320.538 43.1632 312.442 38.0024 305.614C34.6003 301.113 30.2754 294.745 27.3457 289.926C24.3775 285.043 20.646 278.142 18.1861 272.984C14.4854 265.226 10.4506 254.818 7.95992 246.588C5.48923 238.424 3.17088 228.015 1.9409 219.573C0.718362 211.182 -0.0163694 200.85 0.000403194 192.368C0.0176417 183.889 0.771941 173.794 2.01032 165.404C3.67266 154.142 6.84221 141.313 10.6128 130.571C13.4226 122.566 17.4141 113.363 21.3407 105.842C25.2613 98.333 30.6257 89.6512 35.5913 82.7884C40.57 75.9074 47.3014 67.9131 53.2361 61.8394C59.2197 55.7158 67.3171 48.5857 74.1468 43.4259C78.6484 40.0245 85.0177 35.7004 89.838 32.7713L98.1949 27.9781Z" fill="black"/>
<path d="M362.415 297.334L367.13 289.043C371.286 281.322 375.705 271.562 378.76 263.342C381.784 255.204 384.737 245.19 386.629 236.715C389.841 222.324 391.588 206.049 391.54 191.302C391.502 179.483 390.317 166.681 388.2 155.053C386.109 143.568 382.602 130.799 378.518 119.864C374.436 108.939 368.553 96.6718 362.579 86.6569C358.055 79.0721 352.1 70.4951 346.579 63.6029C340.96 56.5882 333.698 48.7295 327.155 42.5696C321.789 37.5184 314.772 31.6207 308.718 27.1196C298.936 19.845 288.529 13.4643 277.634 7.99706C281.221 12.7278 284.6 17.61 287.776 22.6264C288.135 23.1942 288.429 23.2631 289.004 23.6157C295.334 27.5048 301.549 31.6808 307.364 36.3128C312.276 40.2257 317.196 44.3462 321.764 48.6564C328.069 54.6039 335.188 62.3378 340.592 69.1158C347.749 78.0911 355.075 89.2654 360.456 99.4066C365.835 109.541 370.784 121.356 374.246 132.295C378.575 145.976 381.606 161.37 382.793 175.67C383.981 189.97 383.526 205.701 381.504 219.906C379.887 231.26 376.905 243.861 373.252 254.732C369.568 265.695 364.113 277.997 358.463 288.087L353.089 297.113C349.844 302.245 346.402 307.302 342.644 312.076C338.753 317.02 333.936 322.796 329.634 327.361C325.671 331.567 319.793 337.213 315.428 341.003C311.07 344.787 304.874 349.649 300.161 352.984C292.979 358.066 283.417 363.826 275.567 367.802C267.728 371.774 257.678 375.98 249.347 378.782C241.02 381.582 230.604 384.27 221.961 385.855C213.31 387.442 202.659 388.618 193.869 388.957C185.111 389.295 174.246 388.938 165.53 388.019C156.803 387.1 145.909 385.147 137.41 382.972C131.843 381.547 124.409 379.25 119.011 377.286C113.571 375.307 106.268 372.231 101.053 369.722C95.8406 367.215 88.606 363.276 83.6744 360.259C78.2965 356.969 70.8602 351.843 65.821 347.956C60.1299 343.565 54.6826 338.855 49.5017 333.874C49.0517 333.441 48.6198 333.407 48.0243 333.218C43.3588 331.737 36.3413 329.324 31.9427 327.369C40.7306 337.332 51.3625 347.438 62.0313 355.356L70.6086 361.539C75.4726 364.861 83.1745 369.569 88.3521 372.388C93.5567 375.221 101.308 378.952 106.772 381.251C112.193 383.533 120.096 386.408 125.717 388.142C131.294 389.862 139.332 391.913 145.053 393.082C153.866 394.884 165.484 396.389 174.466 396.899C183.421 397.408 195.013 397.229 203.95 396.455C212.911 395.678 224.253 393.878 233.011 391.834C241.737 389.798 252.824 386.358 261.169 383.098C266.591 380.98 274.024 377.657 279.214 375.025C284.428 372.38 291.561 368.31 296.495 365.173C301.539 361.966 308.185 357.26 312.885 353.569C317.585 349.879 323.932 344.365 328.241 340.227C332.544 336.095 338.563 329.704 342.428 325.163L349.037 316.991C353.924 310.767 358.36 304.125 362.416 297.335L362.415 297.334ZM314.484 27.053L322.296 33.2762C329.286 39.1184 337.376 46.9133 343.479 53.6797C349.507 60.3623 356.198 68.9015 361.239 76.3578C366.191 83.6799 371.598 92.9919 375.503 100.922C380.743 111.562 385.723 124.508 388.974 135.915C392.232 147.348 394.79 160.765 395.971 172.594C397.155 184.456 397.302 198.11 396.357 209.993C395.414 221.864 393.05 235.661 389.981 247.165C387.697 255.725 384.125 266.148 380.683 274.309C378.385 279.756 375.104 286.608 372.305 291.814L366.666 301.646C362.709 308.151 358.401 314.579 353.677 320.556L346.87 328.947C343.041 333.428 336.513 340.331 332.249 344.403C328.029 348.433 321.017 354.482 316.409 358.069C311.811 361.649 304.439 366.818 299.506 369.927C294.473 373.099 287.016 377.289 281.69 379.95C276.28 382.652 268.769 385.961 263.124 388.127C257.508 390.282 249.74 392.84 243.941 394.441C238.206 396.025 230.16 397.837 224.299 398.866C218.397 399.904 210.327 400.926 204.352 401.394C198.387 401.861 190.229 402.108 184.247 402C178.342 401.895 169.993 401.347 164.127 400.675C158.243 400.001 149.941 398.638 144.15 397.397C138.295 396.142 130.161 393.974 124.458 392.149C118.824 390.346 110.622 387.271 105.197 384.922C99.7975 382.583 91.6619 378.565 86.5258 375.7C81.3184 372.794 73.4697 367.873 68.5842 364.457L59.9375 358.08C47.4685 348.592 35.5395 336.639 25.6567 324.493L21.7296 319.65C31.8998 324.32 39.6367 327.717 50.2947 331.163C50.9227 331.367 51.3905 332.042 51.8573 332.497C57.1062 337.616 62.6216 342.551 68.4682 346.984C73.4632 350.771 79.5204 355.099 84.8173 358.415C89.6902 361.467 96.7561 365.413 101.912 367.96C107.035 370.491 114.27 373.624 119.621 375.631C127.804 378.701 138.486 381.827 147.034 383.659C155.58 385.492 166.327 386.985 175.049 387.559C183.761 388.133 194.497 388.062 203.201 387.38C211.916 386.696 222.49 385.099 231.016 383.176C239.537 381.254 249.87 378.127 258.023 374.999C266.199 371.862 276.122 367.2 283.751 362.905C288.732 360.101 295.279 355.978 299.957 352.696C304.647 349.405 310.905 344.53 315.242 340.789C319.589 337.038 325.521 331.371 329.465 327.202C333.824 322.595 339.708 315.649 343.601 310.492C347.13 305.818 350.525 300.997 353.569 295.992C356.771 290.727 359.849 285.363 362.598 279.845C367.714 269.579 372.532 257.091 375.641 246.048C378.732 235.072 381.068 222.388 382.099 211.031C383.39 196.82 383.033 181.108 381.108 166.969C379.185 152.845 375.331 137.615 370.295 124.28C366.273 113.629 360.655 102.067 354.757 92.3295C348.823 82.5316 340.904 71.8496 333.253 63.3271C327.473 56.8901 319.929 49.6099 313.296 44.0584L305.331 37.7336C299.264 33.1728 292.938 28.9675 286.39 25.1292C285.831 24.8017 285.094 23.374 284.7 22.7787C279.044 14.232 273.938 7.89598 267.4 0C280.665 5.93398 289.743 10.2618 302.002 18.2696C306.264 21.0533 310.42 23.9856 314.482 27.053H314.484Z" fill="black"/>
<path fill-rule="evenodd" clip-rule="evenodd" d="M342.779 192.588C342.779 106.677 273.122 37.0339 187.195 37.0339C101.268 37.0339 31.6101 106.678 31.6101 192.588C31.6101 278.498 101.268 348.141 187.195 348.141C273.122 348.141 342.779 278.497 342.779 192.588Z" fill="url(#paint1_radial_88_54)"/>
<mask id="mask0_88_54" style="mask-type:luminance" maskUnits="userSpaceOnUse" x="31" y="37" width="312" height="312">
<path d="M342.779 192.588C342.779 106.677 273.122 37.0339 187.195 37.0339C101.268 37.0339 31.6101 106.678 31.6101 192.588C31.6101 278.498 101.268 348.141 187.195 348.141C273.122 348.141 342.779 278.497 342.779 192.588Z" fill="white"/>
</mask>
<g mask="url(#mask0_88_54)">
<path fill-rule="evenodd" clip-rule="evenodd" d="M133.899 194.98C138.55 202.929 146.539 209.085 156.179 213.546C167.433 218.75 180.869 221.622 193.939 222.348C203.596 222.881 212.601 222.323 221.281 220.434C228.767 218.806 236.017 216.186 243.249 212.421L166.646 143.383C166.311 143.351 165.99 143.326 165.684 143.309H165.669C165.077 143.275 164.393 143.257 163.62 143.257C154.126 143.257 145.526 147.105 139.299 153.331C133.079 159.548 129.227 168.144 129.227 177.642C129.227 180.765 129.642 183.783 130.413 186.646C131.217 189.615 132.396 192.413 133.899 194.98H133.899Z" fill="#3D98D3"/>
<path fill-rule="evenodd" clip-rule="evenodd" d="M243.249 212.421L166.646 143.383L166.356 143.354C135.203 147.395 172.673 203.851 243.249 212.421V212.421Z" fill="#5BCBF1"/>
<path fill-rule="evenodd" clip-rule="evenodd" d="M134.474 148.503C140.955 142.023 149.583 137.69 159.198 136.665C154.237 132.194 149.275 127.721 144.316 123.253C144.316 123.253 131.215 134.828 128.892 155.436C130.499 152.926 132.375 150.602 134.474 148.503H134.474Z" fill="#3D98D3"/>
<path fill-rule="evenodd" clip-rule="evenodd" d="M117.649 159.455C119.95 139.067 130.523 124.11 146.965 110.387C124.231 106.413 103.216 119.159 96.1571 140.793C102.54 144.226 109.576 144.556 116.621 145.185C116.621 145.185 114.602 151.64 117.649 159.455Z" fill="#3D98D3"/>
<path fill-rule="evenodd" clip-rule="evenodd" d="M238.434 230.309C232.874 235.324 226.657 239.409 220.033 242.504C229.139 268.329 228.637 264.781 283.288 270.737L238.434 230.308V230.309Z" fill="#3D98D3"/>
<path d="M174.876 242.452L185.251 249.402L163.8 271.913C159.711 270.859 155.426 269.81 150.975 268.8L167.521 245.387L174.876 242.452Z" fill="#282828"/>
<path d="M190.317 245.258L199.981 248.42L188.928 278.312H178.474L182.825 249.518L183.117 248.424L190.317 245.258Z" fill="#282828"/>
<path d="M240.971 223.417L307.033 282.962H231.298L231.033 282.947C226.713 282.602 222.666 281.256 219.116 279.143C215.484 276.977 212.388 273.996 210.084 270.452L209.965 270.253L196.054 245.3C198.111 244.832 216.668 240.65 219.134 239.953C229.224 268.562 226.906 264.589 283.289 270.737L235.792 227.928C237.602 226.526 239.333 225.024 240.972 223.417L240.971 223.417Z" fill="#282828"/>
<path d="M99.7231 149.611C96.9197 148.725 94.2874 147.583 91.7249 146.118C88.793 147.136 86.0502 148.534 83.5506 150.253C82.431 151.026 81.3571 151.862 80.3387 152.759H80.4686C87.6426 152.804 93.1543 153.139 99.7231 149.611ZM144.316 123.253C144.316 123.253 128.631 137.108 128.54 161.489C128.54 161.489 125.434 169.315 124.928 169.347C124.852 169.351 124.667 169.277 124.413 169.137C125.027 179.953 127.54 191.148 130.485 198.381C143.486 230.326 208.711 234.083 244.306 213.376C210.977 183.333 177.648 153.292 144.317 123.253H144.316ZM116.621 145.185C116.621 145.185 114.603 151.64 117.649 159.455C119.951 139.067 130.523 124.11 146.965 110.387C124.231 106.413 103.217 119.159 96.1575 140.793C102.54 144.226 109.576 144.556 116.621 145.185ZM162.588 107.479C161.757 107.897 149.724 118.952 149.724 118.952L253.192 212.208L251.65 214.637C229.669 249.274 184.08 260.148 148.943 237.861C133.415 228.012 123.674 214.459 118.197 197.736C115.92 190.789 114.178 183.895 110.799 177.566V177.562L110.788 177.548L110.781 177.53L110.772 177.514L110.761 177.495L110.566 177.136C108.349 173.117 105.347 169.584 101.762 166.745C96.2302 162.364 89.9894 160.039 83.108 159.409C78.2304 158.959 74.0671 159.325 67.3567 157.38C69.6406 154.429 73.1651 149.144 79.6845 144.654C82.6612 142.604 85.9113 140.939 89.3665 139.726C103.907 103.377 128.97 95.3602 162.588 107.478V107.479Z" fill="#282828"/>
<path d="M130.413 186.646C131.217 189.615 132.396 192.413 133.899 194.98C138.55 202.929 146.54 209.085 156.18 213.546C167.433 218.75 180.869 221.622 193.939 222.348C203.597 222.881 212.602 222.323 221.282 220.434C228.768 218.806 236.017 216.186 243.249 212.421L166.646 143.383C166.311 143.351 165.99 143.326 165.684 143.309H165.669C165.077 143.275 164.393 143.257 163.62 143.257C154.127 143.257 145.526 147.105 139.299 153.33C133.08 159.549 129.228 168.144 129.228 177.642C129.228 180.766 129.643 183.784 130.413 186.646H130.413ZM128.032 198.419C126.205 195.299 124.782 191.936 123.826 188.401C122.896 184.965 122.401 181.353 122.401 177.642C122.401 166.258 127.016 155.958 134.474 148.502C141.935 141.043 152.244 136.428 163.619 136.428C164.358 136.428 165.174 136.455 166.07 136.508C166.949 136.561 167.761 136.631 168.503 136.721L169.577 136.847C197.446 161.97 225.319 187.087 253.192 212.205C252.362 213.502 251.539 214.798 250.703 216.087L249.981 216.502C240.994 221.629 232.026 225.077 222.722 227.098C213.448 229.116 203.848 229.713 193.566 229.145C179.687 228.378 165.376 225.306 153.328 219.734C152.735 219.458 152.146 219.175 151.564 218.89C141.516 213.945 133.146 207.164 128.032 198.419V198.419Z" fill="#282828"/>
<path d="M205.702 269.221C172.4 268.187 114.529 264.07 71.6588 248.706L70.3575 252.32C64.5952 268.372 196.742 281.854 212.586 282.498C209.11 277.605 206.977 272.833 205.702 269.222L205.702 269.221Z" fill="#282828"/>
<path d="M126.884 264.494C108.877 268.594 90.4567 271.624 73.3878 272.386L73.5793 276.705C73.9809 285.796 134.01 273.927 141.813 272.237C140.275 271.515 139.076 270.913 138.299 270.479C131.797 266.869 126.888 264.494 126.888 264.494H126.884L126.884 264.494Z" fill="#282828"/>
<path fill-rule="evenodd" clip-rule="evenodd" d="M112.176 254.673C105.273 254.965 98.4503 251.501 94.7682 245.102C91.0834 238.702 91.5153 231.062 95.2397 225.245C102.139 224.951 108.964 228.417 112.646 234.815C116.331 241.215 115.895 248.856 112.176 254.673Z" fill="#282828"/>
<path fill-rule="evenodd" clip-rule="evenodd" d="M110.686 249.051C111.99 244.99 111.569 240.5 109.38 236.694C106.866 232.334 102.365 229.507 97.4323 229.057C96.3826 231.309 95.9013 233.76 96.0024 236.196C96.1976 235.582 96.4357 234.975 96.7101 234.386C101.643 234.836 106.145 237.659 108.654 242.023C109.913 244.21 110.589 246.622 110.686 249.051Z" fill="#23BCB2"/>
<path fill-rule="evenodd" clip-rule="evenodd" d="M80.4686 152.759C87.6426 152.804 93.1543 153.139 99.723 149.611C96.9197 148.725 94.2873 147.583 91.7249 146.118C88.7929 147.136 86.0502 148.534 83.5506 150.253C82.431 151.026 81.3571 151.862 80.3386 152.759H80.4686Z" fill="#F5AE41"/>
<path fill-rule="evenodd" clip-rule="evenodd" d="M243.249 212.421C212.998 218.175 116.882 204.802 136.653 156.297C132.006 162.159 129.227 169.573 129.227 177.642C129.227 180.766 129.642 183.784 130.413 186.646C131.217 189.615 132.396 192.413 133.899 194.98C138.55 202.929 146.54 209.085 156.18 213.546C167.433 218.75 180.869 221.622 193.939 222.348C203.597 222.881 212.602 222.323 221.282 220.434C228.767 218.806 236.017 216.186 243.249 212.421H243.249Z" fill="#246EB2"/>
<path fill-rule="evenodd" clip-rule="evenodd" d="M141.987 114.757C141.987 114.757 123.217 128.527 114.546 140.987C114.546 140.987 107.034 142.218 96.1575 140.792C102.54 144.226 109.576 144.556 116.621 145.185C116.621 145.185 114.603 151.64 117.649 159.455C119.706 141.207 128.398 127.311 141.988 114.757H141.987Z" fill="#246EB2"/>
<path fill-rule="evenodd" clip-rule="evenodd" d="M136.765 141.441C137.124 136.923 140.459 127.474 140.459 127.474C136.681 132.21 131.207 140.823 129.262 152.751C129.12 153.626 128.994 154.522 128.893 155.436C129.554 154.4 130.262 153.396 131.013 152.427C132.083 151.047 133.24 149.736 134.474 148.502C140.956 142.022 149.584 137.691 159.199 136.666C147.352 135.163 136.764 141.441 136.764 141.441H136.765Z" fill="#246EB2"/>
<path fill-rule="evenodd" clip-rule="evenodd" d="M279.554 270.333C230.039 264.547 230.151 245.644 230.151 245.644C235.209 242.034 241.763 233.309 241.763 233.309L238.434 230.309C232.874 235.324 226.658 239.409 220.033 242.504C228.926 267.726 228.654 264.927 279.554 270.333Z" fill="#246EB2"/>
<path fill-rule="evenodd" clip-rule="evenodd" d="M96.1571 140.793C96.1571 140.793 110.36 114.071 141.987 114.757C143.58 113.28 145.24 111.826 146.965 110.387C124.231 106.413 103.216 119.159 96.1571 140.793Z" fill="#5BCBF1"/>
<path fill-rule="evenodd" clip-rule="evenodd" d="M241.763 233.31C241.763 233.31 237.928 238.51 240.56 243.418C242.893 247.774 276.804 266.8 283.288 270.738L241.763 233.309V233.31Z" fill="#5BCBF1"/>
<path d="M149.15 85.5688L161.168 86.322L159.148 88.3599L144.533 87.4437L145.452 72.7897L161.93 73.8224L159.931 75.8617L149.798 75.2263L149.149 85.5678L149.15 85.5688ZM165.78 89.5179L178.574 92.2914L181.685 77.942L165.406 74.413L163.152 84.8062L165.78 89.5179H165.78ZM169.234 77.4534L176.943 79.1247L174.746 89.251L169.477 88.1088L167.638 84.8127L169.234 77.4538V77.4534ZM200.792 84.735L195.587 98.4648L187.179 86.7324L184.346 94.2049L180.246 92.651L185.451 78.9216L193.94 90.6172L196.751 83.2034L200.792 84.7345L200.792 84.735ZM202.35 99.2553L211.219 104.198L211.816 107.004L197.449 98.9977L204.6 86.1729L219.003 94.2003L216.319 95.1785L207.396 90.205L205.394 93.7959L215.087 99.1984L214.035 101.085L204.342 95.6829L202.35 99.2557V99.2553ZM217.849 108.467L227.754 115.313L224.972 116.017L212.927 107.691L221.278 95.6135L234.859 105.001L232.094 105.716L223.742 99.9433L217.848 108.467H217.849ZM250.696 119.73L247.858 120.043L243.876 116.347L235.354 125.524L232.141 122.541L240.663 113.364L236.634 109.625L236.736 106.772L250.696 119.73ZM252.504 122.1L262.97 135.057L251.545 144.282L248.777 140.855L253.64 136.927L248.763 130.889L243.9 134.817L241.079 131.325L252.504 122.1L252.504 122.1ZM258.455 132.906L253.684 126.999L250.501 129.568L255.273 135.476L258.455 132.906H258.455ZM271.103 161.907L265.614 164.811L262.756 164.163L256.566 152.464L257.593 149.786L263.116 160.224L264.276 160.488L267.114 158.987L261.492 148.364L266.87 145.519L269.86 146.192L276.866 159.43L274.092 158.808L269.51 150.15L268.123 149.816L265.452 151.229L271.103 161.908V161.907ZM265.592 170.971L269.952 183.312L283.799 178.422L278.251 162.719L268.222 166.261L265.592 170.971ZM277.674 167.572L280.301 175.008L270.529 178.459L268.733 173.376L270.572 170.08L277.674 167.572ZM273.543 189.128L275.818 200.951L273.339 199.505L270.574 185.128L284.995 182.355L288.113 198.565L285.638 197.141L283.72 187.171L273.543 189.128V189.128ZM273.831 203.041L288.458 201.732L288.851 206.12L274.223 207.428L273.831 203.041ZM289.172 208.945L289.815 225.587L275.14 226.153L274.97 221.751L281.217 221.51L280.918 213.755L274.671 213.996L274.497 209.511L289.172 208.945H289.172ZM287.482 221.164L287.189 213.576L283.101 213.734L283.394 221.321L287.482 221.164ZM276.377 232.655L275.259 242.492L273.325 240.373L274.724 228.056L289.316 229.713L288.821 234.069L276.377 232.655Z" fill="black" stroke="black" stroke-width="0.756512" stroke-miterlimit="22.9256"/>
<path fill-rule="evenodd" clip-rule="evenodd" d="M107.71 135.393C114.377 132.745 119.612 130.989 124.378 125.256C121.447 125.486 118.579 125.413 115.654 125.016C113.318 127.059 111.299 129.383 109.627 131.914C108.879 133.05 108.197 134.228 107.589 135.441L107.71 135.393Z" fill="black"/>
</g>
<path fill-rule="evenodd" clip-rule="evenodd" d="M342.779 192.588C342.779 106.677 273.122 37.0339 187.195 37.0339C101.268 37.0339 31.6101 106.678 31.6101 192.588C31.6101 278.498 101.268 348.141 187.195 348.141C273.122 348.141 342.779 278.497 342.779 192.588Z" stroke="black" stroke-width="0.288373" stroke-miterlimit="22.9256"/>
<defs>
<linearGradient id="paint0_linear_88_54" x1="95.761" y1="328.861" x2="277.547" y2="94.6846" gradientUnits="userSpaceOnUse">
<stop stop-color="#003399"/>
<stop offset="0.368627" stop-color="#99FFFF"/>
<stop offset="0.729412" stop-color="#F5AE41"/>
<stop offset="1" stop-color="#336699"/>
</linearGradient>
<radialGradient id="paint1_radial_88_54" cx="0" cy="0" r="1" gradientUnits="userSpaceOnUse" gradientTransform="translate(236.967 93.0196) rotate(120.005) scale(264.687 421.453)">
<stop stop-color="#FFCC00"/>
<stop offset="0.34902" stop-color="#FF6633"/>
<stop offset="0.580392" stop-color="#FF6633"/>
<stop offset="1" stop-color="#246EB2"/>
</radialGradient>
</defs>
</svg>
