<svg width="397" height="396" viewBox="0 0 397 396" fill="none" xmlns="http://www.w3.org/2000/svg">
<g clip-path="url(#clip0_88_4)">
<path fill-rule="evenodd" clip-rule="evenodd" d="M288.009 56.7682C359.721 112.436 372.718 215.686 317.039 287.382C261.36 359.08 158.09 372.074 86.3789 316.406C14.6673 260.738 1.67045 157.489 57.3493 85.792C113.028 14.0947 216.298 1.10042 288.009 56.7682ZM282.61 63.7205C350.482 116.407 362.782 214.127 310.085 281.985C257.388 349.842 159.648 362.141 91.7778 309.454C23.9067 256.767 11.6059 159.047 64.3029 91.1899C117 23.3322 214.74 11.0339 282.61 63.7205Z" fill="url(#paint0_linear_88_4)"/>
<path d="M316.982 287.339L321.999 280.53C328.021 271.909 333.902 261.389 338.08 251.737C343.233 239.835 347.251 226.125 349.351 213.326C351.867 197.994 352.164 181.488 350.224 166.073C348.283 150.658 343.904 134.741 337.667 120.51C332.459 108.629 325.171 96.3459 317.229 86.0892C310.787 77.7717 302.485 69.04 294.512 62.1782C286.443 55.232 276.34 48.1619 267.038 42.9765C257.934 37.9014 247.155 33.2293 237.224 30.0572C224.896 26.1183 211.104 23.5097 198.189 22.6554C180.049 21.455 161.01 23.3914 143.482 28.213C131.004 31.646 118.121 36.9218 106.829 43.2443C97.76 48.3226 88.2411 54.9674 80.351 61.7314C72.3104 68.625 63.8995 77.474 57.4052 85.8363C50.9086 94.2018 44.4223 104.535 39.733 114.035C35.1336 123.353 31.0532 134.221 28.3798 144.264C24.3847 159.272 22.4805 175.86 22.9427 191.384C23.4832 209.542 27.2318 228.349 33.7112 245.321C38.3301 257.419 44.9474 269.936 52.3571 280.556C58.3477 289.142 66.0934 298.158 73.6718 305.379C81.4212 312.762 91.1372 320.305 100.212 325.981C109.082 331.53 119.749 336.803 129.547 340.477C141.679 345.025 155.438 348.33 168.311 349.807C186.362 351.878 205.515 350.849 223.244 346.873C238.403 343.474 254.003 337.521 267.558 329.931C276.627 324.852 286.146 318.208 294.036 311.443C300.01 306.322 306.494 299.846 311.627 293.885L316.982 287.339H316.982ZM281.232 65.4924C276.985 62.2681 273.136 59.3302 268.625 56.4147C251.915 45.6148 232.71 38.01 213.134 34.4428C179.188 28.2573 143.424 33.8312 112.999 50.115C102.075 55.9619 91.3077 63.577 82.1606 71.9327C75.8825 77.6678 69.6757 84.3923 64.4143 91.1633C58.1758 99.1916 52.1587 108.815 47.6902 117.949C41.1409 131.337 36.3417 146.607 34.0382 161.333C29.437 190.742 33.624 221.516 45.9109 248.629C52.0627 262.204 60.5314 275.317 70.3867 286.499C83.8397 301.763 101.04 314.781 119.39 323.577C141.389 334.123 166.117 339.259 190.495 338.447C221.96 337.399 252.758 326.536 277.878 307.556C285.807 301.565 293.256 294.681 299.86 287.255C300.548 286.481 304.69 281.704 305.52 280.529L306.536 279.226C309.65 275.119 312.672 270.925 315.414 266.558C323.244 254.085 329.559 239.773 333.436 225.562C338.512 206.95 340.02 186.802 337.818 167.639C335.305 145.77 327.998 124.363 316.554 105.553C310.067 94.8907 301.905 84.6196 292.985 75.8898C289.139 72.1251 285.328 68.9366 281.233 65.4924H281.232ZM66.024 88.8985C69.4675 84.8348 72.713 80.9886 76.463 77.1722C90.5049 62.8815 107.776 51.0303 126.168 43.0761C155.792 30.264 189.338 26.8011 220.95 33.3346C235.73 36.3894 250.698 41.8641 263.964 49.0576C277.747 56.5316 291.147 66.67 302.085 77.9002C312.795 88.8962 322.305 102.126 329.315 115.782C337.361 131.456 342.924 149.233 345.304 166.688C347.362 181.781 347.212 197.534 344.855 212.584C342.881 225.186 339.121 238.291 334.105 250.018C330.007 259.595 324.463 269.557 318.51 278.104L313.127 285.391C306.193 294.228 298.001 302.639 289.347 309.781C279.394 317.993 268.367 324.997 256.707 330.525C229.278 343.53 198.079 348.389 167.99 344.409C153.03 342.429 137.719 338.07 123.967 331.86C114.6 327.631 105.108 322.14 96.7634 316.141C84.0689 307.015 72.0644 295.329 62.6536 282.84C53.5876 270.809 45.9398 256.769 40.7351 242.632C29.4612 212.01 27.9507 177.923 36.5439 146.438C40.5311 131.829 47.0463 117.017 55.1046 104.197C58.303 99.1082 62.171 93.682 66.024 88.8985ZM288.053 56.7114L294.607 62.0696C302.581 68.9338 310.899 77.6813 317.342 86.0016C325.29 96.2654 332.588 108.563 337.799 120.453C344.041 134.695 348.424 150.627 350.367 166.055C352.31 181.493 352.012 197.995 349.492 213.349C347.39 226.159 343.369 239.881 338.212 251.793C334.029 261.456 328.145 271.981 322.116 280.611C316.015 289.346 307.972 298.709 300.239 306.043C292.671 313.221 283.376 320.425 274.534 325.963C263.562 332.835 250.824 338.79 238.519 342.819C221.227 348.481 202.287 351.324 184.094 350.995C171.141 350.76 157.344 348.839 144.824 345.507C134.77 342.832 123.892 338.749 114.563 334.147C105.059 329.457 94.7037 322.959 86.3346 316.463C77.9656 309.966 69.1031 301.545 62.204 293.501C55.4326 285.606 48.7809 276.08 43.6969 267.005C36.0966 253.437 30.1405 237.836 26.7361 222.662C22.7587 204.934 21.7276 185.742 23.799 167.692C25.2769 154.817 28.589 141.036 33.1395 128.902C36.8169 119.097 42.0961 108.424 47.6501 99.5475C53.3327 90.4665 60.8827 80.744 68.2748 72.9897C75.4996 65.41 84.5339 57.6523 93.1243 51.6606C103.755 44.2458 116.287 37.6233 128.397 33.0016C145.382 26.5193 164.22 22.7663 182.392 22.2255C197.937 21.7629 214.534 23.6672 229.563 27.6666C239.617 30.3422 250.495 34.4246 259.824 39.0273C266.887 42.512 274.78 47.1837 281.237 51.6913L288.053 56.7114Z" fill="black"/>
<path d="M351.711 97.6735L346.92 89.3247C342.455 81.9808 335.967 72.9207 330.445 66.3304C324.968 59.7937 317.539 52.1651 311.15 46.5134C304.804 40.8994 296.565 34.6291 289.464 30.0017C282.365 25.3753 273.51 20.4805 265.818 16.9241C255.487 12.1481 243.032 7.77783 231.982 5.04957C220.941 2.32364 207.802 0.383997 196.445 -0.188952C187.983 -0.615636 177.721 -0.387388 169.288 0.419865C160.818 1.23084 150.433 3.00745 142.178 5.06075C133.86 7.12942 123.454 10.5694 115.543 13.8618C110.294 16.046 103.262 19.4012 98.2627 22.1034C93.2631 24.8056 86.6039 28.8493 81.9011 32.0438C74.8137 36.8575 66.2341 43.6789 59.9476 49.5029C53.7078 55.2837 46.5324 62.9984 41.2146 69.6391C35.92 76.2503 30.1079 84.7099 25.8304 92.0218C20.0909 101.832 14.5136 113.893 10.7491 124.617C6.98082 135.353 3.81453 148.169 2.15265 159.424C0.915204 167.806 0.16137 177.896 0.144598 186.367C0.127359 194.849 0.861159 205.16 2.08369 213.551C3.31368 221.992 5.6283 232.384 8.09806 240.546C10.5878 248.774 14.6165 259.165 18.3163 266.922C20.7753 272.077 24.5021 278.97 27.4694 283.851C31.9342 291.195 38.4224 300.255 43.9443 306.845C49.4215 313.382 56.8503 321.01 63.2393 326.662C69.5858 332.276 77.8249 338.546 84.9253 343.174C92.0247 347.8 100.879 352.695 108.572 356.251C118.903 361.027 131.357 365.398 142.407 368.126C153.448 370.852 166.587 372.791 177.945 373.364C186.406 373.791 196.668 373.563 205.101 372.756C213.571 371.945 223.957 370.168 232.212 368.115C240.529 366.046 250.936 362.606 258.847 359.314C264.096 357.129 271.127 353.774 276.127 351.072C281.127 348.37 287.786 344.326 292.489 341.132C299.576 336.318 308.156 329.496 314.442 323.672C320.682 317.892 327.857 310.177 333.175 303.536C338.47 296.925 344.282 288.465 348.559 281.154C354.299 271.344 359.876 259.282 363.641 248.558C367.409 237.822 370.575 225.006 372.237 213.751C373.474 205.369 374.228 195.28 374.245 186.808C374.262 178.327 373.528 168.016 372.306 159.624C371.076 151.184 368.761 140.792 366.292 132.629C363.802 124.402 359.773 114.01 356.073 106.254L351.711 97.6735H351.711ZM104.03 32.7724L96.278 37.348C89.2293 41.7486 81.2982 47.5712 74.9894 52.9821C66.72 60.075 58.0374 69.1565 51.327 77.7405C44.7247 86.187 38.1461 96.5243 33.2863 106.081C27.1755 118.098 22.0785 131.979 18.9667 145.096C16.4769 155.593 14.8537 167.255 14.391 178.033C13.9275 188.839 14.5522 200.805 16.1726 211.497C17.815 222.335 20.8489 234.278 24.5748 244.585C27.3753 252.333 31.4455 261.4 35.3656 268.645C36.5648 270.861 37.792 273.077 39.111 275.225C43.5534 282.461 48.3531 289.489 53.7204 296.075C62.1593 306.431 72.726 316.629 83.371 324.704C94.1399 332.873 105.925 339.81 118.285 345.281C135.432 352.872 154.257 357.786 172.93 359.534C183.676 360.54 194.897 360.54 205.642 359.52C216.321 358.506 228.087 356.235 238.373 353.195C246.263 350.863 254.955 347.577 262.417 344.115C269.889 340.648 278.811 335.675 285.678 331.131C292.456 326.647 300.395 320.488 306.423 315.034C312.397 309.629 319.103 302.586 324.21 296.354C331.071 287.981 337.96 277.661 343.07 268.118C348.198 258.543 352.879 247.323 356.08 236.944C359.276 226.584 361.746 214.58 362.896 203.801C364.046 193.014 364.157 180.47 363.185 169.667C362.456 161.559 360.855 151.924 358.922 144.018C356.971 136.035 353.815 126.39 350.673 118.799C348.273 113.001 344.714 105.629 341.487 99.8824L339.061 95.6943C336.012 90.731 332.826 85.8288 329.352 81.1488C322.895 72.4484 314.463 63.1559 306.427 55.885C298.461 48.678 288.806 41.5091 279.608 35.9571C265.781 27.6107 249.737 20.8015 234.131 16.639C218.529 12.4779 201.279 10.3938 185.136 10.739C174.393 10.9686 162.55 12.3605 152.049 14.6369C141.54 16.9152 129.538 20.7763 119.675 25.0529L111.8 28.704L104.03 32.7728L104.03 32.7724ZM27.4909 272.899L23.2633 264.572C19.6781 257.033 15.7962 246.949 13.4052 238.947C11.0169 230.955 8.84304 220.999 7.6848 212.737C6.54193 204.582 5.88874 194.603 5.95955 186.369C6.05506 175.274 7.40199 162.604 9.63694 151.735C11.8584 140.933 15.5963 128.807 19.8416 118.629C24.1154 108.382 30.0645 97.264 36.2261 88.0284C40.8358 81.119 46.7924 73.4806 52.3646 67.3212C57.8963 61.2065 65.2534 54.2044 71.633 48.9831C78.0546 43.7278 86.7563 37.6513 93.8953 33.4264C100.983 29.2327 110.512 24.5117 118.151 21.414C128.434 17.245 140.524 13.654 151.421 11.5509C162.08 9.49342 174.254 8.33028 185.112 8.32469C198.671 8.31724 213.281 10.0263 226.478 13.1458C242.339 16.8947 258.562 23.1915 272.794 31.1318C284.643 37.7426 296.681 46.4384 306.669 55.6204C314.718 63.0203 322.999 72.2504 329.489 81.0473C333.549 86.5504 337.981 93.3694 341.495 99.5987L343.026 102.367C345.827 107.695 348.532 113.17 350.857 118.722C354.062 126.374 357.24 135.886 359.276 143.93C361.975 154.592 363.886 167.219 364.468 178.204C365.047 189.142 364.509 201.547 362.998 212.395C361.097 226.039 357.224 240.767 352.171 253.583C348.137 263.814 342.516 274.858 336.61 284.134C332.182 291.09 326.463 298.772 321.069 305.009C315.684 311.238 308.574 318.32 302.327 323.68C296.038 329.075 287.504 335.336 280.477 339.72C273.478 344.086 264.047 349.036 256.47 352.315C246.221 356.75 234.164 360.633 223.247 362.994C212.579 365.301 200.213 366.752 189.3 366.987C178.365 367.223 166.337 366.332 155.552 364.512C144.644 362.671 133.316 359.636 122.94 355.801C109.943 350.997 96.7117 344.231 85.2043 336.514C78.4077 331.957 70.9593 326.136 64.8904 320.647C58.7848 315.126 52.0529 308.065 46.8259 301.707C43.3545 297.484 39.2689 291.976 36.2354 287.43L31.1613 279.396C29.8777 277.276 28.6221 275.104 27.4913 272.899L27.4909 272.899ZM98.1942 21.9776L106.782 17.613C114.542 13.913 124.952 9.87911 133.183 7.38888C141.349 4.91868 151.76 2.6008 160.204 1.37105C168.597 0.148762 178.931 -0.585824 187.414 -0.569055C195.895 -0.55182 205.992 0.20233 214.383 1.44046C225.648 3.10248 238.48 6.27139 249.224 10.0412C257.23 12.8505 266.435 16.8411 273.957 20.767C281.468 24.6868 290.152 30.0502 297.016 35.0148C303.898 39.9925 311.894 46.7225 317.969 52.656C324.094 58.6384 331.225 66.7343 336.386 73.5626C339.788 78.0633 344.113 84.4314 347.043 89.2507C350.011 94.1333 353.742 101.035 356.202 106.192C359.903 113.951 363.938 124.358 366.429 132.588C368.899 140.752 371.218 151.161 372.448 159.603C373.67 167.995 374.405 178.327 374.388 186.808C374.371 195.287 373.617 205.383 372.378 213.772C370.716 225.034 367.546 237.864 363.776 248.605C360.966 256.61 356.974 265.813 353.048 273.334C349.127 280.843 343.763 289.525 338.797 296.388C333.819 303.269 327.087 311.263 321.152 317.337C315.169 323.46 307.071 330.591 300.242 335.75C295.74 339.152 289.371 343.476 284.55 346.405C279.667 349.373 272.764 353.103 267.606 355.563C259.845 359.263 249.436 363.297 241.205 365.787C233.039 368.257 222.628 370.575 214.184 371.805C205.791 373.027 195.457 373.762 186.974 373.745C178.493 373.728 168.395 372.974 160.004 371.735C148.74 370.073 135.908 366.904 125.164 363.135C117.157 360.325 107.953 356.335 100.431 352.409C92.9197 348.489 84.2362 343.126 77.372 338.161C70.4897 333.183 62.4938 326.453 56.4189 320.52C50.2941 314.537 43.1625 306.442 38.0017 299.613C34.5996 295.113 30.2746 288.744 27.345 283.925C24.3768 279.043 20.6453 272.141 18.1854 266.984C14.4847 259.225 10.4499 248.818 7.95922 240.588C5.48852 232.424 3.17018 222.015 1.94019 213.573C0.71766 205.181 -0.0170713 194.849 -0.000298711 186.368C0.0169398 177.889 0.771239 167.793 2.00961 159.404C3.67196 148.142 6.84151 135.312 10.6121 124.57C13.4219 116.565 17.4134 107.362 21.34 99.8418C25.2606 92.3325 30.625 83.6507 35.5906 76.7879C40.5693 69.9069 47.3007 61.9126 53.2354 55.8389C59.219 49.7154 67.3164 42.5852 74.1461 37.4254C78.6477 34.024 85.017 29.6999 89.8373 26.7708L98.1942 21.9776Z" fill="black"/>
<path d="M362.414 291.334L367.13 283.042C371.285 275.321 375.705 265.562 378.759 257.342C381.783 249.204 384.737 239.19 386.628 230.715C389.841 216.324 391.587 200.048 391.54 185.302C391.502 173.483 390.316 160.68 388.199 149.052C386.108 137.568 382.602 124.798 378.517 113.864C374.436 102.939 368.552 90.6714 362.578 80.6565C358.054 73.0716 352.1 64.4946 346.579 57.6025C340.96 50.5878 333.697 42.7291 327.154 36.5692C321.788 31.5179 314.771 25.6203 308.718 21.1192C298.936 13.8446 288.528 7.46387 277.634 1.99663C281.221 6.72742 284.6 11.6096 287.775 16.6259C288.135 17.1938 288.429 17.2627 289.003 17.6153C295.334 21.5044 301.548 25.6804 307.363 30.3124C312.276 34.2252 317.195 38.3458 321.764 42.656C328.068 48.6035 335.188 56.3373 340.592 63.1154C347.748 72.0906 355.074 83.265 360.456 93.4062C365.834 103.541 370.783 115.356 374.245 126.295C378.575 139.976 381.605 155.369 382.793 169.67C383.98 183.969 383.525 199.7 381.503 213.906C379.886 225.259 376.904 237.861 373.252 248.731C369.568 259.695 364.112 271.997 358.462 282.087L353.089 291.112C349.844 296.245 346.401 301.302 342.644 306.076C338.752 311.02 333.935 316.795 329.634 321.361C325.671 325.567 319.792 331.212 315.427 335.002C311.069 338.787 304.873 343.648 300.16 346.984C292.979 352.065 283.416 357.825 275.566 361.802C267.727 365.773 257.677 369.98 249.347 372.781C241.02 375.581 230.603 378.27 221.961 379.855C213.309 381.441 202.658 382.618 193.869 382.957C185.11 383.295 174.246 382.937 165.53 382.019C156.802 381.099 145.908 379.146 137.409 376.971C131.843 375.547 124.408 373.249 119.01 371.285C113.57 369.307 106.268 366.23 101.053 363.722C95.84 361.214 88.6054 357.276 83.6738 354.259C78.2959 350.969 70.8596 345.843 65.8204 341.956C60.1294 337.565 54.682 332.855 49.5011 327.873C49.0511 327.44 48.6192 327.407 48.0238 327.218C43.3582 325.736 36.3407 323.324 31.9421 321.369C40.73 331.332 51.362 341.438 62.0307 349.356L70.608 355.539C75.4721 358.86 83.1739 363.568 88.3515 366.387C93.5562 369.221 101.307 372.951 106.772 375.251C112.193 377.532 120.095 380.408 125.717 382.142C131.294 383.861 139.332 385.913 145.053 387.082C153.865 388.883 165.484 390.388 174.466 390.899C183.42 391.408 195.012 391.229 203.949 390.454C212.91 389.677 224.252 387.878 233.01 385.834C241.736 383.798 252.823 380.358 261.169 377.097C266.59 374.979 274.024 371.656 279.213 369.024C284.427 366.379 291.56 362.31 296.494 359.172C301.538 355.965 308.184 351.26 312.884 347.569C317.585 343.879 323.932 338.364 328.24 334.226C332.543 330.094 338.563 323.704 342.427 319.163L349.037 310.991C353.924 304.767 358.36 298.125 362.415 291.334L362.414 291.334ZM314.483 21.0525L322.295 27.2758C329.285 33.118 337.375 40.9129 343.479 47.6793C349.506 54.3618 356.197 62.9011 361.239 70.3573C366.19 77.6794 371.597 86.9915 375.503 94.9219C380.742 105.562 385.722 118.507 388.973 129.914C392.232 141.347 394.79 154.764 395.97 166.594C397.154 178.456 397.302 192.11 396.357 203.992C395.413 215.864 393.05 229.66 389.98 241.165C387.696 249.724 384.125 260.148 380.682 268.308C378.385 273.755 375.103 280.608 372.305 285.814L366.666 295.646C362.708 302.151 358.4 308.579 353.676 314.555L346.869 322.947C343.041 327.427 336.513 334.331 332.249 338.402C328.029 342.432 321.016 348.482 316.409 352.069C311.811 355.648 304.439 360.817 299.506 363.927C294.473 367.099 287.015 371.289 281.689 373.949C276.28 376.652 268.769 379.961 263.123 382.127C257.507 384.281 249.74 386.839 243.941 388.44C238.205 390.024 230.16 391.836 224.299 392.866C218.396 393.903 210.326 394.926 204.352 395.394C198.387 395.86 190.229 396.107 184.247 396C178.341 395.894 169.992 395.347 164.126 394.675C158.242 394.001 149.94 392.637 144.149 391.396C138.294 390.141 130.16 387.973 124.457 386.149C118.824 384.346 110.621 381.271 105.197 378.921C99.7969 376.583 91.6613 372.565 86.5252 369.699C81.3178 366.794 73.4691 361.873 68.5837 358.456L59.9369 352.08C47.4679 342.592 35.5389 330.639 25.6561 318.492L21.729 313.65C31.8993 318.319 39.6361 321.717 50.2941 325.163C50.9222 325.366 51.3899 326.041 51.8568 326.496C57.1056 331.616 62.621 336.551 68.4677 340.984C73.4626 344.771 79.5198 349.098 84.8167 352.415C89.6896 355.466 96.7555 359.413 101.912 361.96C107.034 364.49 114.27 367.623 119.621 369.631C127.803 372.701 138.485 375.826 147.033 377.659C155.579 379.491 166.326 380.985 175.049 381.559C183.761 382.132 194.496 382.062 203.201 381.379C211.915 380.696 222.49 379.098 231.016 377.175C239.536 375.253 249.869 372.126 258.023 368.998C266.198 365.862 276.121 361.2 283.75 356.904C288.731 354.1 295.278 349.977 299.956 346.695C304.646 343.405 310.905 338.53 315.241 334.788C319.588 331.037 325.52 325.37 329.464 321.202C333.823 316.595 339.707 309.648 343.601 304.491C347.129 299.817 350.524 294.997 353.568 289.991C356.771 284.726 359.849 279.363 362.598 273.845C367.713 263.578 372.532 251.09 375.641 240.048C378.731 229.071 381.067 216.388 382.099 205.03C383.39 190.82 383.032 175.107 381.107 160.969C379.185 146.844 375.331 131.614 370.295 118.279C366.272 107.628 360.654 96.0669 354.756 86.3291C348.823 76.5312 340.904 65.8492 333.252 57.3267C327.472 50.8897 319.928 43.6095 313.295 38.0579L305.331 31.7331C299.263 27.1724 292.938 22.967 286.389 19.1287C285.83 18.8013 285.093 17.3736 284.699 16.7782C279.043 8.23153 273.938 1.89555 267.399 -6.00043C280.664 -0.0664476 289.742 4.26141 302.002 12.2692C306.264 15.0529 310.42 17.9852 314.482 21.0525H314.483Z" fill="black"/>
<path fill-rule="evenodd" clip-rule="evenodd" d="M342.779 186.587C342.779 100.677 273.121 31.0335 187.194 31.0335C101.267 31.0335 31.6095 100.678 31.6095 186.587C31.6095 272.497 101.267 342.141 187.194 342.141C273.121 342.141 342.779 272.497 342.779 186.587Z" fill="url(#paint1_radial_88_4)"/>
<mask id="mask0_88_4" style="mask-type:luminance" maskUnits="userSpaceOnUse" x="31" y="31" width="312" height="312">
<path d="M342.779 186.587C342.779 100.677 273.121 31.0335 187.194 31.0335C101.267 31.0335 31.6095 100.678 31.6095 186.587C31.6095 272.497 101.267 342.141 187.194 342.141C273.121 342.141 342.779 272.497 342.779 186.587Z" fill="white"/>
</mask>
<g mask="url(#mask0_88_4)">
<path fill-rule="evenodd" clip-rule="evenodd" d="M133.898 188.979C138.549 196.929 146.539 203.085 156.178 207.546C167.432 212.75 180.868 215.622 193.938 216.348C203.595 216.88 212.6 216.323 221.281 214.434C228.766 212.806 236.016 210.185 243.248 206.421L166.645 137.382C166.31 137.351 165.989 137.326 165.683 137.309H165.668C165.076 137.274 164.392 137.257 163.619 137.257C154.126 137.257 145.525 141.105 139.298 147.33C133.078 153.548 129.227 162.144 129.227 171.642C129.227 174.764 129.641 177.782 130.412 180.645C131.217 183.614 132.395 186.413 133.898 188.979H133.898Z" fill="#3D98D3"/>
<path fill-rule="evenodd" clip-rule="evenodd" d="M243.248 206.421L166.645 137.382L166.355 137.353C135.202 141.394 172.672 197.85 243.248 206.42V206.421Z" fill="#5BCBF1"/>
<path fill-rule="evenodd" clip-rule="evenodd" d="M134.473 142.502C140.954 136.022 149.583 131.689 159.197 130.665C154.236 126.194 149.275 121.721 144.315 117.253C144.315 117.253 131.214 128.828 128.892 149.435C130.499 146.925 132.374 144.601 134.473 142.502H134.473Z" fill="#3D98D3"/>
<path fill-rule="evenodd" clip-rule="evenodd" d="M117.648 153.455C119.95 133.067 130.522 118.11 146.964 104.387C124.23 100.412 103.216 113.158 96.1564 134.793C102.539 138.225 109.575 138.556 116.62 139.184C116.62 139.184 114.602 145.64 117.648 153.455Z" fill="#3D98D3"/>
<path fill-rule="evenodd" clip-rule="evenodd" d="M238.433 224.308C232.873 229.323 226.656 233.409 220.032 236.504C229.139 262.328 228.636 258.781 283.287 264.737L238.433 224.308V224.308Z" fill="#3D98D3"/>
<path d="M174.875 236.452L185.25 243.402L163.799 265.913C159.71 264.859 155.425 263.81 150.974 262.8L167.52 239.387L174.875 236.452Z" fill="#282828"/>
<path d="M190.316 239.257L199.98 242.419L188.928 272.312H178.474L182.824 243.518L183.116 242.423L190.316 239.257Z" fill="#282828"/>
<path d="M240.971 217.417L307.032 276.961H231.297L231.032 276.946C226.712 276.602 222.665 275.256 219.116 273.143C215.483 270.976 212.387 267.996 210.083 264.451L209.964 264.252L196.054 239.299C198.111 238.832 216.668 234.649 219.134 233.952C229.223 262.562 226.905 258.588 283.288 264.737L235.792 221.927C237.601 220.525 239.333 219.024 240.971 217.417L240.971 217.417Z" fill="#282828"/>
<path d="M99.7224 143.61C96.919 142.725 94.2867 141.582 91.7242 140.118C88.7923 141.136 86.0495 142.534 83.5499 144.252C82.4304 145.026 81.3564 145.862 80.338 146.758H80.468C87.642 146.804 93.1536 147.139 99.7224 143.61ZM144.316 117.253C144.316 117.253 128.63 131.107 128.54 155.489C128.54 155.489 125.433 163.314 124.927 163.346C124.851 163.35 124.666 163.276 124.412 163.137C125.026 173.953 127.539 185.148 130.485 192.38C143.485 224.326 208.71 228.083 244.305 207.376C210.976 177.333 177.647 147.291 144.316 117.253H144.316ZM116.621 139.184C116.621 139.184 114.602 145.64 117.649 153.454C119.95 133.067 130.522 118.11 146.965 104.387C124.23 100.412 103.216 113.158 96.1568 134.793C102.54 138.225 109.575 138.556 116.621 139.184ZM162.587 101.478C161.757 101.896 149.723 112.952 149.723 112.952L253.191 206.207L251.65 208.637C229.669 243.274 184.079 254.148 148.942 231.861C133.414 222.012 123.673 208.459 118.196 191.735C115.92 184.788 114.177 177.894 110.798 171.565V171.561L110.787 171.548L110.781 171.529L110.771 171.513L110.76 171.495L110.565 171.135C108.348 167.117 105.347 163.583 101.762 160.745C96.2295 156.364 89.9887 154.038 83.1073 153.408C78.2298 152.959 74.0664 153.324 67.356 151.379C69.6399 148.428 73.1644 143.144 79.6838 138.654C82.6605 136.604 85.9107 134.938 89.3658 133.725C103.906 97.3763 128.969 89.3597 162.587 101.478V101.478Z" fill="#282828"/>
<path d="M130.412 180.645C131.217 183.614 132.395 186.413 133.898 188.979C138.549 196.929 146.539 203.085 156.179 207.546C167.433 212.75 180.869 215.622 193.939 216.348C203.596 216.88 212.601 216.323 221.281 214.434C228.767 212.806 236.017 210.185 243.249 206.421L166.645 137.382C166.31 137.351 165.989 137.326 165.683 137.309H165.668C165.077 137.274 164.393 137.257 163.619 137.257C154.126 137.257 145.525 141.105 139.299 147.33C133.079 153.549 129.227 162.144 129.227 171.642C129.227 174.765 129.642 177.784 130.412 180.645H130.412ZM128.031 192.418C126.204 189.299 124.781 185.936 123.826 182.401C122.895 178.964 122.4 175.353 122.4 171.641C122.4 160.257 127.016 149.957 134.474 142.502C141.934 135.042 152.243 130.428 163.618 130.428C164.357 130.428 165.173 130.455 166.07 130.507C166.949 130.56 167.76 130.63 168.502 130.721L169.576 130.846C197.445 155.97 225.318 181.086 253.191 206.204C252.361 207.501 251.538 208.798 250.702 210.086L249.98 210.502C240.993 215.629 232.026 219.076 222.721 221.097C213.447 223.115 203.847 223.713 193.565 223.144C179.686 222.378 165.375 219.306 153.328 213.733C152.734 213.458 152.146 213.175 151.563 212.889C141.515 207.944 133.145 201.163 128.031 192.419V192.418Z" fill="#282828"/>
<path d="M205.702 263.221C172.4 262.186 114.528 258.069 71.6582 242.705L70.3569 246.32C64.5946 262.372 196.741 275.854 212.585 276.498C209.11 271.605 206.976 266.833 205.701 263.221L205.702 263.221Z" fill="#282828"/>
<path d="M126.883 258.494C108.876 262.593 90.456 265.623 73.3871 266.386L73.5786 270.705C73.9802 279.796 134.009 267.926 141.812 266.236C140.275 265.514 139.075 264.912 138.298 264.479C131.797 260.868 126.887 258.493 126.887 258.493H126.884L126.883 258.494Z" fill="#282828"/>
<path fill-rule="evenodd" clip-rule="evenodd" d="M112.176 248.672C105.272 248.965 98.4495 245.5 94.7675 239.102C91.0827 232.701 91.5146 225.061 95.239 219.244C102.138 218.951 108.964 222.416 112.646 228.815C116.33 235.214 115.894 242.855 112.176 248.672Z" fill="#282828"/>
<path fill-rule="evenodd" clip-rule="evenodd" d="M110.686 243.051C111.989 238.989 111.568 234.499 109.379 230.694C106.866 226.333 102.364 223.506 97.4315 223.057C96.3819 225.309 95.9006 227.759 96.0017 230.195C96.1969 229.581 96.435 228.975 96.7094 228.386C101.642 228.836 106.144 231.659 108.653 236.023C109.912 238.209 110.589 240.621 110.686 243.051Z" fill="#23BCB2"/>
<path fill-rule="evenodd" clip-rule="evenodd" d="M80.468 146.758C87.642 146.804 93.1536 147.139 99.7224 143.611C96.919 142.725 94.2867 141.582 91.7242 140.118C88.7923 141.136 86.0495 142.534 83.5499 144.252C82.4303 145.026 81.3564 145.862 80.338 146.758H80.468Z" fill="#F5AE41"/>
<path fill-rule="evenodd" clip-rule="evenodd" d="M243.248 206.421C212.997 212.175 116.881 198.801 136.652 150.296C132.005 156.159 129.227 163.573 129.227 171.642C129.227 174.765 129.641 177.784 130.412 180.645C131.217 183.614 132.395 186.413 133.898 188.979C138.549 196.929 146.539 203.085 156.179 207.546C167.433 212.75 180.869 215.622 193.939 216.348C203.596 216.88 212.601 216.323 221.281 214.434C228.767 212.806 236.017 210.185 243.249 206.421H243.248Z" fill="#246EB2"/>
<path fill-rule="evenodd" clip-rule="evenodd" d="M141.986 108.757C141.986 108.757 123.216 122.526 114.546 134.986C114.546 134.986 107.033 136.218 96.1568 134.791C102.54 138.225 109.575 138.556 116.621 139.184C116.621 139.184 114.602 145.64 117.649 153.455C119.706 135.207 128.397 121.31 141.987 108.757H141.986Z" fill="#246EB2"/>
<path fill-rule="evenodd" clip-rule="evenodd" d="M136.765 135.44C137.123 130.922 140.459 121.474 140.459 121.474C136.68 126.21 131.206 134.822 129.261 146.75C129.119 147.626 128.993 148.521 128.892 149.435C129.553 148.399 130.262 147.395 131.012 146.426C132.082 145.046 133.24 143.736 134.474 142.502C140.955 136.022 149.583 131.69 159.198 130.666C147.351 129.162 136.763 135.44 136.763 135.44H136.765Z" fill="#246EB2"/>
<path fill-rule="evenodd" clip-rule="evenodd" d="M279.553 264.333C230.039 258.547 230.151 239.644 230.151 239.644C235.208 236.034 241.762 227.309 241.762 227.309L238.433 224.308C232.873 229.323 226.657 233.409 220.032 236.504C228.926 261.726 228.654 258.927 279.553 264.333Z" fill="#246EB2"/>
<path fill-rule="evenodd" clip-rule="evenodd" d="M96.1564 134.793C96.1564 134.793 110.359 108.07 141.986 108.757C143.579 107.28 145.239 105.826 146.964 104.387C124.23 100.412 103.216 113.158 96.1564 134.793Z" fill="#5BCBF1"/>
<path fill-rule="evenodd" clip-rule="evenodd" d="M241.762 227.309C241.762 227.309 237.927 232.51 240.559 237.418C242.893 241.774 276.803 260.799 283.287 264.737L241.762 227.309V227.309Z" fill="#5BCBF1"/>
<path d="M149.149 79.5683L161.167 80.3216L159.148 82.3595L144.533 81.4432L145.451 66.7892L161.93 67.822L159.931 69.8613L149.797 69.2259L149.148 79.5674L149.149 79.5683ZM165.779 83.5175L178.573 86.2909L181.685 71.9416L165.406 68.4126L163.152 78.8058L165.779 83.5175H165.779ZM169.233 71.453L176.942 73.1243L174.746 83.2506L169.476 82.1084L167.637 78.8123L169.233 71.4534V71.453ZM200.791 78.7345L195.586 92.4643L187.178 80.7319L184.346 88.2045L180.246 86.6505L185.45 72.9212L193.939 84.6168L196.75 77.2029L200.792 78.7341L200.791 78.7345ZM202.349 93.2548L211.218 98.198L211.815 101.004L197.449 92.9972L204.599 80.1725L219.002 88.1998L216.319 89.178L207.395 84.2046L205.393 87.7955L215.086 93.198L214.034 95.085L204.341 89.6825L202.349 93.2553V93.2548ZM217.848 102.466L227.753 109.312L224.972 110.016L212.926 101.691L221.277 89.6131L234.858 99.0001L232.093 99.7156L223.741 93.9428L217.847 102.466H217.848ZM250.696 113.729L247.857 114.043L243.875 110.346L235.354 119.523L232.14 116.541L240.662 107.363L236.634 103.625L236.735 100.771L250.696 113.729ZM252.504 116.1L262.969 129.056L251.544 138.281L248.776 134.854L253.64 130.927L248.762 124.889L243.899 128.816L241.078 125.324L252.503 116.099L252.504 116.1ZM258.454 126.906L253.683 120.998L250.5 123.568L255.272 129.475L258.455 126.906H258.454ZM271.103 155.907L265.614 158.81L262.755 158.163L256.565 146.464L257.592 143.785L263.116 154.224L264.276 154.488L267.113 152.987L261.491 142.364L266.869 139.519L269.86 140.191L276.865 153.429L274.091 152.808L269.51 144.15L268.122 143.816L265.452 145.228L271.103 155.907V155.907ZM265.591 164.971L269.951 177.312L283.798 172.421L278.25 156.718L268.221 160.26L265.591 164.971ZM277.673 161.571L280.3 169.008L270.529 172.459L268.733 167.376L270.571 164.079L277.673 161.571ZM273.543 183.127L275.817 194.95L273.338 193.505L270.573 179.128L284.994 176.355L288.112 192.565L285.637 191.14L283.72 181.171L273.543 183.128V183.127ZM273.83 197.04L288.458 195.732L288.85 200.12L274.223 201.428L273.83 197.04ZM289.172 202.945L289.814 219.586L275.139 220.152L274.969 215.751L281.216 215.51L280.917 207.755L274.67 207.996L274.497 203.511L289.171 202.945H289.172ZM287.481 215.163L287.188 207.576L283.1 207.733L283.393 215.321L287.481 215.163ZM276.376 226.655L275.258 236.492L273.325 234.373L274.724 222.056L289.315 223.712L288.82 228.068L276.376 226.655Z" fill="black" stroke="black" stroke-width="0.756512" stroke-miterlimit="22.9256"/>
<path fill-rule="evenodd" clip-rule="evenodd" d="M107.709 129.392C114.376 126.744 119.611 124.988 124.378 119.255C121.447 119.485 118.578 119.413 115.653 119.016C113.317 121.058 111.299 123.383 109.626 125.913C108.878 127.05 108.196 128.228 107.588 129.441L107.709 129.392Z" fill="black"/>
</g>
<path fill-rule="evenodd" clip-rule="evenodd" d="M342.779 186.587C342.779 100.677 273.121 31.0335 187.194 31.0335C101.267 31.0335 31.6095 100.678 31.6095 186.587C31.6095 272.497 101.267 342.141 187.194 342.141C273.121 342.141 342.779 272.497 342.779 186.587Z" stroke="black" stroke-width="0.288373" stroke-miterlimit="22.9256"/>
</g>
<defs>
<linearGradient id="paint0_linear_88_4" x1="95.7604" y1="322.861" x2="277.546" y2="88.6842" gradientUnits="userSpaceOnUse">
<stop stop-color="#003399"/>
<stop offset="0.368627" stop-color="#99FFFF"/>
<stop offset="0.729412" stop-color="#F5AE41"/>
<stop offset="1" stop-color="#336699"/>
</linearGradient>
<radialGradient id="paint1_radial_88_4" cx="0" cy="0" r="1" gradientUnits="userSpaceOnUse" gradientTransform="translate(236.966 87.0191) rotate(120.005) scale(264.687 421.453)">
<stop stop-color="#FFCC00"/>
<stop offset="0.34902" stop-color="#FF6633"/>
<stop offset="0.580392" stop-color="#FF6633"/>
<stop offset="1" stop-color="#246EB2"/>
</radialGradient>
<clipPath id="clip0_88_4">
<rect width="397" height="396" fill="white"/>
</clipPath>
</defs>
</svg>
