<svg width="25" height="25" viewBox="0 0 25 25" fill="none" xmlns="http://www.w3.org/2000/svg">
<path fill-rule="evenodd" clip-rule="evenodd" d="M11.3571 0.307375C12.0548 -0.102458 12.9452 -0.102458 13.6429 0.307375L23.8657 6.31218C25.1873 7.0885 25.1873 8.87472 23.8657 9.65103L13.6429 15.6558C12.9452 16.0657 12.0548 16.0657 11.3571 15.6558L1.13434 9.65103C-0.187279 8.87472 -0.18728 7.0885 1.13434 6.31218L11.3571 0.307375ZM12.6633 1.73831C12.5636 1.67976 12.4364 1.67976 12.3367 1.73831L2.11398 7.74312C1.92518 7.85402 1.92517 8.10919 2.11398 8.2201L12.3367 14.2249C12.4364 14.2835 12.5636 14.2835 12.6633 14.2249L22.886 8.2201C23.0748 8.10919 23.0748 7.85402 22.886 7.74312L12.6633 1.73831Z" fill="black"/>
<path fill-rule="evenodd" clip-rule="evenodd" d="M0.142333 12.5835C0.412854 12.1884 0.977973 12.0712 1.40456 12.3218L12.3367 18.7433C12.4364 18.8018 12.5636 18.8018 12.6633 18.7433L23.5954 12.3218C24.022 12.0712 24.5871 12.1884 24.8577 12.5835C25.1282 12.9787 25.0017 13.5021 24.5751 13.7527L13.6429 20.1742C12.9452 20.5841 12.0548 20.5841 11.3571 20.1742L0.424922 13.7527C-0.0016679 13.5021 -0.128187 12.9787 0.142333 12.5835Z" fill="black"/>
<path fill-rule="evenodd" clip-rule="evenodd" d="M0.142333 17.1019C0.412854 16.7068 0.977973 16.5896 1.40456 16.8402L12.3367 23.2617C12.4364 23.3202 12.5636 23.3202 12.6633 23.2617L23.5954 16.8402C24.022 16.5896 24.5871 16.7068 24.8577 17.1019C25.1282 17.4971 25.0017 18.0205 24.5751 18.2711L13.6429 24.6926C12.9452 25.1025 12.0548 25.1025 11.3571 24.6926L0.424922 18.2711C-0.0016679 18.0205 -0.128187 17.4971 0.142333 17.1019Z" fill="black"/>
</svg>
